#!OML:ASF F:\VICON\USERDATA\INSTALL\rory3\rory3.ASF
:FULLY-SPECIFIED
:DEGREES
442
root 0.0732444 15.9216 22.3668 0.0748 1.96603 3.21024
lowerback 12.1185 1.22506 -6.05201
upperback -6.10165 0.580224 0.0856527
thorax -13.707 0.827711 3.37351
lowerneck -11.3861 -5.67422 -3.32187
upperneck 22.0759 -7.72232 1.97264
head 8.99667 -3.7027 0.35811
rclavicle 5.2181e-015 1.98785e-015
rhumerus -44.1273 -4.00709 -82.8059
rradius 22.8028
rwrist 10.8514
rhand -10.3048 20.7181
rfingers 7.12502
rthumb 15.6901 -8.66572
lclavicle 5.2181e-015 1.98785e-015
lhumerus -39.9104 3.28485 87.3576
lradius 17.6613
lwrist -4.45918
lhand -4.42159 19.7359
lfingers 7.12502
lthumb 21.3491 48.5799
rfemur 1.6039 0.530723 17.3518
rtibia 51.6193
rfoot 8.8177 -1.64683
rtoes 13.4957
lfemur -23.966 -13.8566 -25.6658
ltibia 35.0479
lfoot -6.64753 6.24859
ltoes 15.8428
443
root 0.103932 15.9322 22.5063 -0.0292794 1.76355 3.31071
lowerback 12.2783 1.23764 -6.10853
upperback -6.09295 0.57485 0.0799305
thorax -13.7971 0.832333 3.39971
lowerneck -11.6099 -5.69277 -3.4722
upperneck 22.263 -7.72759 2.01393
head 9.1116 -3.70869 0.385979
rclavicle 7.23079e-015 -2.33572e-014
rhumerus -44.5029 -4.23528 -82.6222
rradius 22.1961
rwrist 11.6016
rhand -10.0315 20.6988
rfingers 7.12502
rthumb 15.9533 -8.66425
lclavicle 7.23079e-015 -2.33572e-014
lhumerus -39.629 3.0314 87.4224
lradius 17.6125
lwrist -4.45891
lhand -4.29795 19.6047
lfingers 7.12502
lthumb 21.4678 48.4351
rfemur 0.0517471 0.330696 16.9476
rtibia 54.2204
rfoot 11.4692 -2.24306
rtoes 12.3485
lfemur -23.0993 -13.4678 -26.0466
ltibia 34.7392
lfoot -6.95327 6.07918
ltoes 15.3619
444
root 0.132566 15.9481 22.6454 -0.0738965 1.49843 3.45947
lowerback 12.3108 1.2549 -6.24613
upperback -6.1585 0.566897 0.0687675
thorax -13.8982 0.845018 3.46628
lowerneck -11.3649 -5.65944 -3.50769
upperneck 22.1893 -7.65752 1.92201
head 9.03605 -3.69291 0.377691
rclavicle 6.11263e-015 -3.18055e-015
rhumerus -44.9837 -4.41123 -82.4409
rradius 21.4367
rwrist 12.4117
rhand -10.3564 21.3568
rfingers 7.12502
rthumb 15.6404 -8.031
lclavicle 6.11263e-015 -3.18055e-015
lhumerus -39.5631 2.85488 87.4264
lradius 17.6809
lwrist -4.31996
lhand -4.39623 19.2416
lfingers 7.12502
lthumb 21.3734 48.0828
rfemur -1.6676 0.193977 16.5543
rtibia 56.7775
rfoot 14.2908 -3.21497
rtoes 13.5281
lfemur -22.3045 -13.1595 -26.4143
ltibia 34.3911
lfoot -7.38298 5.92953
ltoes 16.2917
445
root 0.156224 15.9615 22.7773 -0.0849489 1.24255 3.65985
lowerback 12.4024 1.24955 -6.52715
upperback -6.31911 0.495873 0.0751317
thorax -14.1467 0.849984 3.6482
lowerneck -10.8004 -5.52336 -3.49822
upperneck 22.0121 -7.46966 1.86996
head 8.86206 -3.61873 0.40031
rclavicle 1.60022e-014 9.93923e-016
rhumerus -45.5472 -4.55455 -82.2302
rradius 20.7525
rwrist 13.1226
rhand -10.5209 22.1106
rfingers 7.12502
rthumb 15.482 -7.28945
lclavicle 1.60022e-014 9.93923e-016
lhumerus -39.7283 2.65924 87.4615
lradius 17.9055
lwrist -4.03029
lhand -4.6183 19.705
lfingers 7.12502
lthumb 21.1601 48.5703
rfemur -3.48836 0.116123 16.1626
rtibia 59.3367
rfoot 16.8989 -5.1118
rtoes 20.0237
lfemur -21.5092 -12.8904 -26.803
ltibia 33.9677
lfoot -7.82748 5.76147
ltoes 17.4041
446
root 0.181057 15.9699 22.9045 0.0302262 1.12581 4.17884
lowerback 12.3759 1.22519 -7.05684
upperback -6.40231 0.348202 -0.0422828
thorax -14.2258 0.828343 3.85121
lowerneck -10.4893 -5.43013 -3.65173
upperneck 21.8241 -7.35794 2.06434
head 8.75098 -3.56431 0.514724
rclavicle 2.7482e-014 -1.74931e-014
rhumerus -45.943 -4.71847 -82.0916
rradius 20.3234
rwrist 13.681
rhand -10.3451 22.3355
rfingers 7.12502
rthumb 15.6513 -7.05142
lclavicle 2.7482e-014 -1.74931e-014
lhumerus -39.5786 2.44075 87.4457
lradius 18.044
lwrist -3.87817
lhand -4.64964 20.1085
lfingers 7.12502
lthumb 21.13 48.9771
rfemur -5.38221 -0.237395 15.3147
rtibia 61.8341
rfoot 18.1627 -7.56949
rtoes 28.2864
lfemur -20.7753 -12.7033 -27.5924
ltibia 33.5371
lfoot -8.00793 5.75069
ltoes 17.0976
447
root 0.202573 15.9776 23.0248 0.14082 1.02543 4.64946
lowerback 12.3234 1.22569 -7.53264
upperback -6.36423 0.251208 -0.163439
thorax -14.1479 0.816429 4.0075
lowerneck -10.3147 -5.39265 -3.70262
upperneck 21.4874 -7.30878 2.15005
head 8.60786 -3.54119 0.566361
rclavicle -6.70898e-016 -3.37934e-015
rhumerus -46.1629 -4.80785 -82.1362
rradius 20.0896
rwrist 13.9306
rhand -10.2763 22.0566
rfingers 7.12502
rthumb 15.7176 -7.32515
lclavicle -6.70898e-016 -3.37934e-015
lhumerus -39.1225 2.37635 87.3509
lradius 18.1079
lwrist -3.98659
lhand -4.74618 20.0849
lfingers 7.12502
lthumb 21.0373 48.9638
rfemur -7.25507 -0.688483 14.5778
rtibia 64.1848
rfoot 17.7403 -9.03923
rtoes 32.0541
lfemur -20.0942 -12.5931 -28.3008
ltibia 33.1398
lfoot -8.10202 5.84537
ltoes 16.3619
